<?xml version="1.0" encoding="UTF-8"?>
<svg id="Layer_1" xmlns="http://www.w3.org/2000/svg" xmlns:xlink="http://www.w3.org/1999/xlink" viewBox="0 0 1080 1080">
  <defs>
    <style>
      .cls-1 {
        fill: url(#linear-gradient);
      }
    </style>
    <linearGradient id="linear-gradient" x1="541.41" y1="-18.67" x2="541.41" y2="1103.82" gradientUnits="userSpaceOnUse">
      <stop offset="0" stop-color="#f7f7f7"/>
      <stop offset=".27" stop-color="#e8e8e8"/>
      <stop offset=".68" stop-color="#d8d8d8"/>
      <stop offset="1" stop-color="#d3d3d3"/>
    </linearGradient>
  </defs>
  <rect class="cls-1" x="-23.89" y="-18.67" width="1130.6" height="1122.49"/>
  <g>
    <g>
      <path d="M387.17,570.81v-51.47h-23.71v-8.71h56.95v8.71h-23.62v51.47h-9.61Z"/>
      <path d="M434.15,570.81v-60.18h31.26c13.65,0,22.1,6.47,22.1,17.7,0,9.97-6.56,16.08-17.87,16.71v.63c4.67,1.26,6.83,3.95,8.98,7.72l10.06,17.43h-11.14l-9.61-16.62c-2.69-4.76-5.48-6.74-13.02-6.74h-11.05v23.35h-9.7ZM443.85,540h21.47c8.08,0,12.13-2.78,12.13-10.33s-4.04-10.33-12.13-10.33h-21.47v20.66Z"/>
      <path d="M502.23,545.84v-35.21h9.61v34.58c0,12.13,5.39,17.16,18.59,17.16s18.59-5.03,18.59-17.16v-34.58h9.7v35.21c0,16.35-10.24,25.87-28.29,25.87s-28.2-9.52-28.2-25.87Z"/>
      <path d="M596.19,570.81l-25.69-60.18h11.5l20.84,50.39h.72l20.66-50.39h11.41l-25.69,60.18h-13.74Z"/>
      <path d="M643.34,570.81l26.86-60.18h13.65l26.86,60.18h-10.96l-6.92-15.63h-31.8l-6.92,15.63h-10.78ZM664.9,546.47h24.07l-8.17-18.32-3.5-8.53h-.72l-3.5,8.53-8.17,18.32Z"/>
      <path d="M722.93,545.84v-35.21h9.61v34.58c0,12.13,5.39,17.16,18.59,17.16s18.59-5.03,18.59-17.16v-34.58h9.7v35.21c0,16.35-10.24,25.87-28.29,25.87s-28.2-9.52-28.2-25.87Z"/>
      <path d="M796.14,570.81v-60.18h9.7v51.47h37.1v8.71h-46.8Z"/>
      <path d="M877.6,570.81v-51.47h-23.71v-8.71h56.95v8.71h-23.62v51.47h-9.61Z"/>
    </g>
    <g>
      <polygon points="312.15 575.48 312.15 543.19 304.03 543.19 304.03 578.71 304.03 578.71 288.74 584.81 288.74 543.19 280.62 543.19 255.49 598.08 251.04 607.79 260.97 603.83 263.06 599.26 265.4 594.15 265.42 594.11 280.62 560.91 280.62 588.05 280.62 588.07 280.62 595.99 280.62 596.01 288.74 592.77 288.74 592.75 326.56 577.67 326.56 569.73 312.15 575.48 312.15 575.48"/>
      <polygon points="288.74 487.25 288.74 487.23 280.62 483.99 280.62 484.01 280.62 491.93 280.62 491.95 280.62 519.09 265.42 485.89 265.4 485.85 263.06 480.74 260.97 476.17 251.04 472.21 255.49 481.92 280.62 536.81 288.74 536.81 288.74 495.19 304.03 501.29 304.03 501.29 304.03 536.81 312.15 536.81 312.15 504.52 312.15 504.52 326.56 510.27 326.56 502.33 288.74 487.25"/>
      <polygon points="183.58 504.52 183.58 536.81 191.69 536.81 191.69 501.29 191.69 501.29 206.99 495.19 206.99 536.81 215.1 536.81 240.24 481.92 240.24 481.92 244.69 472.21 244.69 472.21 244.69 472.21 234.76 476.17 232.67 480.74 230.32 485.85 230.31 485.89 215.1 519.09 215.1 491.95 215.1 491.93 215.1 484.01 215.1 483.99 206.99 487.23 206.99 487.25 169.16 502.33 169.16 510.27 183.58 504.52 183.58 504.52"/>
      <polygon points="230.31 594.11 230.31 594.11 230.32 594.15 232.67 599.26 234.23 602.69 234.76 603.83 237.24 604.82 244.69 607.79 244.69 607.79 244.69 607.79 240.24 598.08 215.1 543.19 206.99 543.19 206.99 584.81 191.69 578.71 191.69 578.71 191.69 543.19 183.58 543.19 183.58 575.48 183.58 575.48 169.16 569.73 169.16 577.67 206.99 592.75 206.99 592.77 215.1 596.01 215.1 595.99 215.1 588.07 215.1 588.05 215.1 560.91 230.31 594.11 230.31 594.11"/>
    </g>
  </g>
</svg>