<?xml version="1.0" encoding="UTF-8"?>
<svg id="Layer_1" xmlns="http://www.w3.org/2000/svg" xmlns:xlink="http://www.w3.org/1999/xlink" viewBox="0 0 1080 1080">
  <defs>
    <style>
      .cls-1 {
        fill: url(#linear-gradient);
      }
    </style>
    <linearGradient id="linear-gradient" x1="541.41" y1="-18.67" x2="541.41" y2="1103.82" gradientUnits="userSpaceOnUse">
      <stop offset="0" stop-color="#f7f7f7"/>
      <stop offset=".27" stop-color="#e8e8e8"/>
      <stop offset=".68" stop-color="#d8d8d8"/>
      <stop offset="1" stop-color="#d3d3d3"/>
    </linearGradient>
  </defs>
  <rect class="cls-1" x="-23.89" y="-18.67" width="1130.6" height="1122.49"/>
  <g>
    <polygon points="757.54 660.05 757.54 550.79 730.08 550.79 730.08 671 730.08 671 678.33 691.65 678.33 550.79 650.86 550.79 565.8 736.52 550.75 769.39 584.35 755.99 591.43 740.54 599.36 723.23 599.41 723.12 650.86 610.76 650.86 702.6 650.86 702.66 650.86 729.46 650.86 729.53 678.33 718.56 678.33 718.51 806.32 667.46 806.32 640.6 757.54 660.05 757.54 660.05"/>
    <polygon points="678.33 361.49 678.33 361.44 650.86 350.47 650.86 350.54 650.86 377.34 650.86 377.4 650.86 469.24 599.41 356.88 599.36 356.77 591.43 339.46 584.35 324.01 550.75 310.61 565.8 343.48 650.86 529.21 678.33 529.21 678.33 388.35 730.08 409 730.08 409 730.08 529.21 757.54 529.21 757.54 419.95 757.54 419.95 806.32 439.4 806.32 412.54 678.33 361.49"/>
    <polygon points="322.46 419.95 322.46 529.21 349.92 529.21 349.92 409 349.92 409 401.67 388.35 401.67 529.21 429.14 529.21 514.2 343.48 514.2 343.48 529.25 310.61 529.25 310.61 529.25 310.61 495.65 324.01 488.57 339.46 480.64 356.77 480.59 356.88 429.14 469.24 429.14 377.4 429.14 377.34 429.14 350.54 429.14 350.47 401.67 361.44 401.67 361.49 273.68 412.54 273.68 439.4 322.46 419.95 322.46 419.95"/>
    <polygon points="480.59 723.12 480.59 723.12 480.64 723.23 488.57 740.54 493.88 752.13 495.65 755.99 504.05 759.34 529.25 769.39 529.25 769.39 529.25 769.39 514.2 736.52 429.14 550.79 401.67 550.79 401.67 691.65 349.92 671 349.92 671 349.92 550.79 322.46 550.79 322.46 660.05 322.46 660.05 273.68 640.6 273.68 667.46 401.67 718.51 401.67 718.56 429.14 729.53 429.14 729.46 429.14 702.66 429.14 702.6 429.14 610.76 480.59 723.12 480.59 723.12"/>
  </g>
</svg>